<svg width="54" height="191" viewBox="0 0 54 191" fill="none" xmlns="http://www.w3.org/2000/svg">
<path d="M16.3942 158.109C15.2249 158.494 14.2397 158.786 13.2815 159.143C12.2259 159.533 11.2244 160.069 10.1525 160.399C5.63225 161.796 1.32318 159.409 0.251309 155.007C-0.333345 152.598 0.13759 150.373 1.29607 148.245C2.09185 146.778 3.16911 145.506 4.52248 144.558C6.14652 143.427 7.87347 142.425 9.58412 141.424C10.3961 140.947 11.284 140.606 12.2313 140.157C12.1772 139.534 12.1501 138.944 12.0797 138.354C11.1215 130.883 10.1092 123.422 9.21598 115.946C8.51223 110.012 7.91677 104.068 7.34836 98.1234C6.87739 93.213 6.50384 88.2863 6.11407 83.3705C5.65393 77.5885 5.21004 71.8011 4.77696 66.019C4.55501 63.0847 4.33847 60.145 4.17065 57.2052C3.4669 44.5801 2.89304 31.9495 3.05545 19.2972C3.12582 13.9213 3.47773 8.57233 4.57125 3.28838C4.69576 2.69827 4.81485 2.09189 5.04763 1.53968C5.81635 -0.273975 8.06292 -0.550058 9.23223 1.05787C9.78982 1.82122 10.212 2.69284 10.6289 3.54282C12.8917 8.14462 14.505 12.9901 15.7988 17.9384C18.8411 29.5782 21.5045 41.3101 23.6807 53.1448C25.7974 64.6331 27.8491 76.1376 29.7655 87.6637C31.3516 97.2247 32.7213 106.823 34.145 116.411C34.9083 121.549 35.5796 126.698 36.3158 131.841C36.4349 132.68 36.6677 133.503 36.8734 134.456C37.6637 134.413 38.335 134.358 39.0063 134.342C41.9891 134.277 44.8799 134.662 47.5542 136.091C50.5695 137.71 52.4154 140.2 52.973 143.584C53.5523 147.081 51.9229 149.75 48.4961 150.719C46.8396 151.185 45.1073 151.385 43.402 151.688C42.0378 151.932 40.6682 152.138 39.3094 152.392C38.9846 152.452 38.6815 152.636 38.4108 152.749C37.9994 153.605 38.3567 154.336 38.5299 155.083C39.5585 159.463 40.625 163.832 41.594 168.228C42.4222 171.969 42.6496 175.769 42.4601 179.591C42.3681 181.427 41.9458 183.186 41.2583 184.881C38.871 190.755 30.545 192.487 25.9815 188.2C24.2437 186.57 22.9878 184.621 21.9917 182.488C20.3677 179.018 19.3392 175.347 18.63 171.601C17.9858 168.201 17.5149 164.768 16.9573 161.352C16.8057 160.334 16.6108 159.327 16.3942 158.109ZM25.1262 136.562C26.512 136.302 27.5352 136.156 28.5313 135.907C29.5923 135.642 30.794 135.847 31.7955 134.949C31.7035 133.936 31.6494 132.902 31.5032 131.884C30.3015 123.406 29.1863 114.906 27.8383 106.45C25.7433 93.2942 23.5292 80.1547 21.2935 67.0206C18.8357 52.6034 15.9395 38.2783 12.3233 24.1048C11.3597 20.3367 10.2283 16.612 9.15102 12.871C9.04275 12.4974 8.89114 12.0318 8.10619 12.3296C8.03582 16.0652 7.87342 19.8657 7.91673 23.6662C8.0629 37.1739 8.54474 50.6707 9.58412 64.1404C10.1958 72.0826 10.6938 80.0302 11.3759 87.9615C12.0851 96.2393 12.8809 104.512 13.7796 112.768C14.6024 120.337 15.5984 127.889 16.5674 135.441C16.6974 136.443 16.7299 137.504 17.2983 138.489C19.4745 138.181 21.5154 137.547 23.5942 136.876C23.6212 136.448 23.7079 136.107 23.6591 135.782C22.7605 129.616 21.824 123.46 20.9361 117.294C19.9726 110.613 19.0306 103.932 18.1211 97.2463C17.3307 91.4156 16.5999 85.5794 15.8366 79.7432C14.7485 71.4221 13.6442 63.101 12.5723 54.7798C12.437 53.7512 12.3991 52.7063 12.3667 51.6723C12.3288 50.6003 12.2313 49.5229 12.4586 48.3427C13.5197 55.7489 14.5645 63.0198 15.5985 70.2906C16.6487 77.6589 17.6881 85.0218 18.7275 92.3901C19.7506 99.6718 20.7196 106.964 21.8023 114.241C22.8958 121.576 23.8378 128.945 25.1262 136.562ZM8.17657 155.895C8.70167 155.711 9.60573 155.429 10.4881 155.088C11.7765 154.59 13.0216 153.973 14.3317 153.545C24.2925 150.292 34.486 148.05 44.8528 146.588C45.5349 146.491 46.2225 146.356 46.8667 146.123C48.2038 145.646 48.5611 144.742 47.944 143.47C46.6989 140.909 44.566 139.556 41.7943 139.334C40.1702 139.204 38.5082 139.301 36.8788 139.464C35.0761 139.648 33.2897 139.994 31.5032 140.314C25.4564 141.402 19.5178 142.896 13.7254 144.953C11.5979 145.711 9.54076 146.632 7.77056 148.039C6.9044 148.727 6.11951 149.561 5.46448 150.454C4.63622 151.575 4.64699 152.89 5.13962 154.168C5.58894 155.31 6.61208 155.96 8.17657 155.895ZM35.8719 164.893C31.2488 164.898 27.1237 166.338 23.1989 168.704C23.4696 170.659 23.7024 172.505 24.6065 174.232C28.8507 173.052 32.9703 171.909 37.117 170.756C36.8842 168.699 36.6135 166.842 35.8719 164.893ZM37.1766 172.423C33.1165 173.052 29.2729 173.604 25.5971 174.936C25.3048 175.044 25.0774 175.32 24.7526 175.569C25.1153 176.625 25.4077 177.621 25.8029 178.574C26.1818 179.494 26.4037 180.533 27.1995 181.151C29.0076 180.382 30.6262 179.532 32.3477 178.996C34.053 178.46 35.8611 178.238 37.6475 177.87C37.9182 176.04 37.8911 174.356 37.1766 172.423ZM34.4807 158.699C29.3649 159.463 24.1138 161.071 22.2137 162.402C22.23 164.871 22.4032 165.694 23.2098 167.264C25.137 166.327 26.9992 165.223 29.0022 164.508C31.0593 163.772 33.2572 163.42 35.5254 162.868C35.1844 161.482 34.8488 160.161 34.4807 158.699ZM32.9703 153.816C30.859 153.892 28.9697 154.52 27.0804 155.007C25.1262 155.511 23.0312 155.684 21.2231 156.864C21.3313 157.617 21.4071 158.299 21.5262 158.97C21.6561 159.685 21.51 160.497 22.0892 161.136C24.1193 160.361 26.0086 159.555 27.9574 158.927C29.9008 158.299 31.9038 157.844 33.9555 157.292C33.8093 156.095 33.674 155.007 32.9703 153.816ZM37.4959 180.008C33.7877 179.656 29.7059 180.837 28.0115 182.65C29.7817 185.26 31.552 186.202 33.7444 185.503C36.2996 184.697 37.2523 182.688 37.4959 180.008Z" fill="black"/>
</svg>
